<?xml version="1.0" encoding="UTF-8"?><svg xmlns="http://www.w3.org/2000/svg" xmlns:xlink="http://www.w3.org/1999/xlink" fill-opacity="1" color-rendering="auto" color-interpolation="auto" stroke="black" text-rendering="auto" stroke-linecap="square" width="1001" stroke-miterlimit="10" stroke-opacity="1" shape-rendering="auto" fill="black" stroke-dasharray="none" font-weight="normal" stroke-width="1" height="311" font-family="'Dialog'" font-style="normal" stroke-linejoin="miter" font-size="12" stroke-dashoffset="0" image-rendering="auto">
  <!--Generated by ySVG 2.5-->
  <defs id="genericDefs"/>
  <g>
    <defs id="defs1">
      <clipPath clipPathUnits="userSpaceOnUse" id="clipPath1">
        <path d="M0 0 L1001 0 L1001 311 L0 311 L0 0 Z"/>
      </clipPath>
      <clipPath clipPathUnits="userSpaceOnUse" id="clipPath2">
        <path d="M484 -14 L614 -14 L614 14 L484 14 L484 -14 Z"/>
      </clipPath>
      <clipPath clipPathUnits="userSpaceOnUse" id="clipPath3">
        <path d="M160 -14 L439 -14 L439 14 L160 14 L160 -14 Z"/>
      </clipPath>
      <clipPath clipPathUnits="userSpaceOnUse" id="clipPath4">
        <path d="M614 210 L784 210 L784 238 L614 238 L614 210 Z"/>
      </clipPath>
      <clipPath clipPathUnits="userSpaceOnUse" id="clipPath5">
        <path d="M-10 85 L160 85 L160 113 L-10 113 L-10 85 Z"/>
      </clipPath>
      <clipPath clipPathUnits="userSpaceOnUse" id="clipPath6">
        <path d="M859 211 L959 211 L959 239 L859 239 L859 211 Z"/>
      </clipPath>
      <clipPath clipPathUnits="userSpaceOnUse" id="clipPath7">
        <path d="M855 86 L955 86 L955 114 L855 114 L855 86 Z"/>
      </clipPath>
      <clipPath clipPathUnits="userSpaceOnUse" id="clipPath8">
        <path d="M436 210 L562 210 L562 238 L436 238 L436 210 Z"/>
      </clipPath>
      <clipPath clipPathUnits="userSpaceOnUse" id="clipPath9">
        <path d="M656 -14 L842 -14 L842 14 L656 14 L656 -14 Z"/>
      </clipPath>
    </defs>
    <g id="y.node.0">
      <g fill="lime" text-rendering="optimizeQuality" shape-rendering="geometricPrecision" transform="matrix(1,0,0,1,26,30)" stroke="lime">
        <rect x="207" width="184" height="52" y="73" stroke="none"/>
      </g>
      <g fill="lime" text-rendering="optimizeQuality" shape-rendering="geometricPrecision" transform="matrix(1,0,0,1,26,30)" stroke="lime">
        <rect x="206" width="1" height="54" y="72" stroke="none"/>
        <rect x="207" width="184" height="1" y="72" stroke="none"/>
        <rect fill="rgb(0,178,0)" x="207" width="185" height="1" y="125" stroke="none"/>
        <rect fill="rgb(0,178,0)" x="391" width="1" height="53" y="72" stroke="none"/>
      </g>
      <g text-rendering="optimizeQuality" stroke-miterlimit="1.45" shape-rendering="geometricPrecision" font-family="sans-serif" transform="matrix(1,0,0,1,26,30)" stroke-linecap="butt">
        <text x="212.5518" xml:space="preserve" y="89.0187" stroke="none">&lt;&lt;MediaManager Thread&gt;&gt;</text>
      </g>
      <g>
        <g font-size="13" stroke-linecap="butt" transform="matrix(1,0,0,1,26,30)" text-rendering="optimizeQuality" font-family="sans-serif" shape-rendering="geometricPrecision" font-weight="bold" stroke-miterlimit="1.45">
          <text x="213.6814" xml:space="preserve" y="112.9156" stroke="none">GetUserMediaRunnable</text>
        </g>
      </g>
    </g>
    <g id="y.node.1">
      <g fill="rgb(255,204,0)" text-rendering="optimizeQuality" shape-rendering="geometricPrecision" transform="matrix(1,0,0,1,26,30)" stroke="rgb(255,204,0)">
        <rect x="485" width="128" height="26" y="-13" stroke="none"/>
        <rect fill="yellow" x="484" width="1" height="28" y="-14" stroke="none"/>
        <rect fill="yellow" x="485" width="128" height="1" y="-14" stroke="none"/>
        <rect fill="rgb(178,142,0)" x="485" width="129" height="1" y="13" stroke="none"/>
        <rect fill="rgb(178,142,0)" x="613" width="1" height="27" y="-14" stroke="none"/>
      </g>
      <g>
        <g font-size="13" stroke-linecap="butt" transform="matrix(1,0,0,1,26,30)" text-rendering="optimizeQuality" font-family="sans-serif" shape-rendering="geometricPrecision" font-weight="bold" stroke-miterlimit="1.45">
          <text x="495.7244" xml:space="preserve" y="2.7469" clip-path="url(#clipPath2)" stroke="none">Active Window</text>
        </g>
      </g>
    </g>
    <g id="y.node.2">
      <g fill="rgb(255,204,0)" text-rendering="optimizeQuality" shape-rendering="geometricPrecision" transform="matrix(1,0,0,1,26,30)" stroke="rgb(255,204,0)">
        <rect x="161" width="277" height="26" y="-13" stroke="none"/>
        <rect fill="yellow" x="160" width="1" height="28" y="-14" stroke="none"/>
        <rect fill="yellow" x="161" width="277" height="1" y="-14" stroke="none"/>
        <rect fill="rgb(178,142,0)" x="161" width="278" height="1" y="13" stroke="none"/>
        <rect fill="rgb(178,142,0)" x="438" width="1" height="27" y="-14" stroke="none"/>
      </g>
      <g>
        <g font-size="13" stroke-linecap="butt" transform="matrix(1,0,0,1,26,30)" text-rendering="optimizeQuality" font-family="sans-serif" shape-rendering="geometricPrecision" font-weight="bold" stroke-miterlimit="1.45">
          <text x="164.998" xml:space="preserve" y="2.7469" clip-path="url(#clipPath3)" stroke="none">NavigatorUserMediaSuccessCallback</text>
        </g>
      </g>
    </g>
    <g id="y.node.3">
      <g fill="rgb(255,204,0)" text-rendering="optimizeQuality" shape-rendering="geometricPrecision" transform="matrix(1,0,0,1,26,30)" stroke="rgb(255,204,0)">
        <rect x="615" width="168" height="26" y="211" stroke="none"/>
        <rect fill="yellow" x="614" width="1" height="28" y="210" stroke="none"/>
        <rect fill="yellow" x="615" width="168" height="1" y="210" stroke="none"/>
        <rect fill="rgb(178,142,0)" x="615" width="169" height="1" y="237" stroke="none"/>
        <rect fill="rgb(178,142,0)" x="783" width="1" height="27" y="210" stroke="none"/>
      </g>
      <g>
        <g font-size="13" stroke-linecap="butt" transform="matrix(1,0,0,1,26,30)" text-rendering="optimizeQuality" font-family="sans-serif" shape-rendering="geometricPrecision" font-weight="bold" stroke-miterlimit="1.45">
          <text x="639.5735" xml:space="preserve" y="227.7469" clip-path="url(#clipPath4)" stroke="none">StreamListeners</text>
        </g>
      </g>
    </g>
    <g id="y.node.4">
      <g fill="rgb(255,204,0)" text-rendering="optimizeQuality" shape-rendering="geometricPrecision" transform="matrix(1,0,0,1,26,30)" stroke="rgb(255,204,0)">
        <rect x="-9" width="168" height="26" y="86" stroke="none"/>
        <rect fill="yellow" x="-10" width="1" height="28" y="85" stroke="none"/>
        <rect fill="yellow" x="-9" width="168" height="1" y="85" stroke="none"/>
        <rect fill="rgb(178,142,0)" x="-9" width="169" height="1" y="112" stroke="none"/>
        <rect fill="rgb(178,142,0)" x="159" width="1" height="27" y="85" stroke="none"/>
      </g>
      <g>
        <g font-size="13" stroke-linecap="butt" transform="matrix(1,0,0,1,26,30)" text-rendering="optimizeQuality" font-family="sans-serif" shape-rendering="geometricPrecision" font-weight="bold" stroke-miterlimit="1.45">
          <text x="-2.5684" xml:space="preserve" y="102.7469" clip-path="url(#clipPath5)" stroke="none">MediaEngineWebRTC</text>
        </g>
      </g>
    </g>
    <g id="y.node.5">
      <g fill="rgb(255,204,0)" text-rendering="optimizeQuality" shape-rendering="geometricPrecision" transform="matrix(1,0,0,1,26,30)" stroke="rgb(255,204,0)">
        <path d="M203.675 184.44 L381.325 184.44 L381.325 199.44 L396.325 199.44 L396.325 265.56 L203.675 265.56 Z" stroke="none"/>
        <path fill="white" d="M381.325 184.44 L381.325 199.44 L396.325 199.44 Z" fill-rule="evenodd" stroke="none"/>
      </g>
      <g text-rendering="optimizeQuality" stroke-miterlimit="1.45" shape-rendering="geometricPrecision" transform="matrix(1,0,0,1,26,30)" stroke-linecap="butt">
        <path fill="none" d="M203.675 184.44 L381.325 184.44 L381.325 199.44 L396.325 199.44 L396.325 265.56 L203.675 265.56 Z"/>
        <path fill="none" d="M381.325 184.44 L381.325 199.44 L396.325 199.44 Z" fill-rule="evenodd"/>
      </g>
      <g>
        <g font-size="9" stroke-linecap="butt" transform="matrix(1,0,0,1,26,30)" text-rendering="optimizeQuality" font-family="sans-serif" shape-rendering="geometricPrecision" stroke-miterlimit="1.45">
          <text x="213.1113" xml:space="preserve" y="201.9243" stroke="none">Offer video preferences from</text>
          <text x="213.1113" xml:space="preserve" y="212.4009" stroke="none"> media.navigator.video.default_width</text>
          <text x="213.1113" xml:space="preserve" y="222.8774" stroke="none"> media.navigator.video.default_height</text>
          <text x="213.1113" xml:space="preserve" y="233.354" stroke="none"> media.navigator.video.default_fps</text>
          <text x="213.1113" xml:space="preserve" y="243.8306" stroke="none"> media.navigator.video.default_minfps</text>
          <text x="213.1113" xml:space="preserve" y="254.3071" stroke="none"> media.navigator.video.load_adapt</text>
        </g>
      </g>
    </g>
    <g id="y.node.6">
      <g fill="rgb(255,204,0)" text-rendering="optimizeQuality" shape-rendering="geometricPrecision" transform="matrix(1,0,0,1,26,30)" stroke="rgb(255,204,0)">
        <rect x="860" width="98" height="26" y="212" stroke="none"/>
        <rect fill="yellow" x="859" width="1" height="28" y="211" stroke="none"/>
        <rect fill="yellow" x="860" width="98" height="1" y="211" stroke="none"/>
        <rect fill="rgb(178,142,0)" x="860" width="99" height="1" y="238" stroke="none"/>
        <rect fill="rgb(178,142,0)" x="958" width="1" height="27" y="211" stroke="none"/>
      </g>
      <g>
        <g font-size="13" stroke-linecap="butt" transform="matrix(1,0,0,1,26,30)" text-rendering="optimizeQuality" font-family="sans-serif" shape-rendering="geometricPrecision" font-weight="bold" stroke-miterlimit="1.45">
          <text x="862.8697" xml:space="preserve" y="228.0669" clip-path="url(#clipPath6)" stroke="none">MediaDevice</text>
        </g>
      </g>
    </g>
    <g id="y.node.7">
      <g fill="rgb(255,204,0)" text-rendering="optimizeQuality" shape-rendering="geometricPrecision" transform="matrix(1,0,0,1,26,30)" stroke="rgb(255,204,0)">
        <rect x="856" width="98" height="26" y="87" stroke="none"/>
        <rect fill="yellow" x="855" width="1" height="28" y="86" stroke="none"/>
        <rect fill="yellow" x="856" width="98" height="1" y="86" stroke="none"/>
        <rect fill="rgb(178,142,0)" x="856" width="99" height="1" y="113" stroke="none"/>
        <rect fill="rgb(178,142,0)" x="954" width="1" height="27" y="86" stroke="none"/>
      </g>
      <g>
        <g font-size="13" stroke-linecap="butt" transform="matrix(1,0,0,1,26,30)" text-rendering="optimizeQuality" font-family="sans-serif" shape-rendering="geometricPrecision" font-weight="bold" stroke-miterlimit="1.45">
          <text x="858.3257" xml:space="preserve" y="103.0669" clip-path="url(#clipPath7)" stroke="none">MediaDevice</text>
        </g>
      </g>
    </g>
    <g id="y.node.8">
      <a target="_blank" xlink:type="simple" xlink:href="http://dxr.mozilla.org/mozilla-central/source/dom/media/MediaManager.h?from=MediaManager#447" xlink:show="new">
        <g fill="rgb(255,204,0)" text-rendering="optimizeQuality" shape-rendering="geometricPrecision" transform="matrix(1,0,0,1,26,30)" stroke="rgb(255,204,0)">
          <rect x="437" width="124" height="26" y="211" stroke="none"/>
          <rect fill="yellow" x="436" width="1" height="28" y="210" stroke="none"/>
          <rect fill="yellow" x="437" width="124" height="1" y="210" stroke="none"/>
          <rect fill="rgb(178,142,0)" x="437" width="125" height="1" y="237" stroke="none"/>
          <rect fill="rgb(178,142,0)" x="561" width="1" height="27" y="210" stroke="none"/>
        </g>
        <g>
          <g font-size="13" stroke-linecap="butt" transform="matrix(1,0,0,1,26,30)" text-rendering="optimizeQuality" font-family="sans-serif" shape-rendering="geometricPrecision" font-weight="bold" stroke-miterlimit="1.45">
            <text x="445.7212" xml:space="preserve" y="227.7469" clip-path="url(#clipPath8)" stroke="none">MediaManager</text>
          </g>
        </g>
      </a>
    </g>
    <g id="y.node.9">
      <g fill="rgb(255,204,0)" text-rendering="optimizeQuality" shape-rendering="geometricPrecision" transform="matrix(1,0,0,1,26,30)" stroke="rgb(255,204,0)">
        <rect x="657" width="184" height="26" y="-13" stroke="none"/>
        <rect fill="yellow" x="656" width="1" height="28" y="-14" stroke="none"/>
        <rect fill="yellow" x="657" width="184" height="1" y="-14" stroke="none"/>
        <rect fill="rgb(178,142,0)" x="657" width="185" height="1" y="13" stroke="none"/>
        <rect fill="rgb(178,142,0)" x="841" width="1" height="27" y="-14" stroke="none"/>
      </g>
      <g>
        <g font-size="13" stroke-linecap="butt" transform="matrix(1,0,0,1,26,30)" text-rendering="optimizeQuality" font-family="sans-serif" shape-rendering="geometricPrecision" font-weight="bold" stroke-miterlimit="1.45">
          <text x="659.0317" xml:space="preserve" y="3.0669" clip-path="url(#clipPath9)" stroke="none">MediaStreamConstraints</text>
        </g>
      </g>
    </g>
    <g id="y.edge.0">
      <g text-rendering="optimizeQuality" stroke-miterlimit="1.45" shape-rendering="geometricPrecision" transform="matrix(1,0,0,1,26,30)" stroke-linecap="butt">
        <path fill="none" d="M550 21.32 L550 81.25 L393.2383 81.25"/>
        <path fill="white" d="M550 14.32 L555 21.32 L550 28.32 L545 21.32 Z" stroke="none"/>
        <path fill="none" d="M550 14.32 L555 21.32 L550 28.32 L545 21.32 Z"/>
      </g>
      <g>
        <g text-rendering="optimizeQuality" stroke-miterlimit="1.45" shape-rendering="geometricPrecision" font-family="sans-serif" transform="matrix(1,0,0,1,26,30)" stroke-linecap="butt">
          <text x="468.9766" xml:space="preserve" y="55.4043" stroke="none">mWindowID</text>
        </g>
      </g>
    </g>
    <g id="y.edge.1">
      <g text-rendering="optimizeQuality" stroke-miterlimit="1.45" shape-rendering="geometricPrecision" transform="matrix(1,0,0,1,26,30)" stroke-linecap="butt">
        <path fill="none" d="M300 21.32 L300 72.8514"/>
        <path fill="white" d="M300 14.32 L305 21.32 L300 28.32 L295 21.32 Z" stroke="none"/>
        <path fill="none" d="M300 14.32 L305 21.32 L300 28.32 L295 21.32 Z"/>
      </g>
      <g>
        <g text-rendering="optimizeQuality" stroke-miterlimit="1.45" shape-rendering="geometricPrecision" font-family="sans-serif" transform="matrix(1,0,0,1,26,30)" stroke-linecap="butt">
          <text x="240.0029" xml:space="preserve" y="47.7543" stroke="none">mSuccess</text>
        </g>
      </g>
    </g>
    <g id="y.edge.2">
      <g text-rendering="optimizeQuality" stroke-miterlimit="1.45" shape-rendering="geometricPrecision" transform="matrix(1,0,0,1,26,30)" stroke-linecap="butt">
        <path fill="none" d="M700 203.6321 L700 112.5 L393.2375 112.5"/>
        <path fill="white" d="M700 210.6321 L695 203.6321 L700 196.6321 L705 203.6321 Z" stroke="none"/>
        <path fill="none" d="M700 210.6321 L695 203.6321 L700 196.6321 L705 203.6321 Z"/>
      </g>
      <g>
        <g text-rendering="optimizeQuality" stroke-miterlimit="1.45" shape-rendering="geometricPrecision" font-family="sans-serif" transform="matrix(1,0,0,1,26,30)" stroke-linecap="butt">
          <text x="700.0146" xml:space="preserve" y="158.7521" stroke="none">mListener</text>
        </g>
      </g>
    </g>
    <g id="y.edge.4">
      <g text-rendering="optimizeQuality" stroke-miterlimit="1.45" shape-rendering="geometricPrecision" transform="matrix(1,0,0,1,26,30)" stroke-linecap="butt">
        <path fill="none" d="M167.2455 100 L206.7545 100"/>
        <path fill="white" d="M160.2455 100 L167.2455 95 L174.2455 100 L167.2455 105 Z" stroke="none"/>
        <path fill="none" d="M160.2455 100 L167.2455 95 L174.2455 100 L167.2455 105 Z"/>
      </g>
      <g>
        <g text-rendering="optimizeQuality" stroke-miterlimit="1.45" shape-rendering="geometricPrecision" font-family="sans-serif" transform="matrix(1,0,0,1,26,30)" stroke-linecap="butt">
          <text x="140.1361" xml:space="preserve" y="134.1543" stroke="none">mBackend</text>
        </g>
      </g>
    </g>
    <g id="y.edge.3">
      <g text-rendering="optimizeQuality" stroke-miterlimit="1.45" shape-rendering="geometricPrecision" transform="matrix(1,0,0,1,26,30)" stroke-linecap="butt">
        <path fill="none" d="M300 177.412 L300 127.148"/>
        <path fill="white" d="M300 184.412 L295 177.412 L300 170.412 L305 177.412 Z" stroke="none"/>
        <path fill="none" d="M300 184.412 L295 177.412 L300 170.412 L305 177.412 Z"/>
      </g>
      <g>
        <g text-rendering="optimizeQuality" stroke-miterlimit="1.45" shape-rendering="geometricPrecision" font-family="sans-serif" transform="matrix(1,0,0,1,26,30)" stroke-linecap="butt">
          <text x="309.1406" xml:space="preserve" y="159.9343" stroke="none">mPrefs</text>
        </g>
      </g>
    </g>
    <g id="y.edge.5">
      <g text-rendering="optimizeQuality" stroke-miterlimit="1.45" shape-rendering="geometricPrecision" transform="matrix(1,0,0,1,26,30)" stroke-linecap="butt">
        <path fill="none" d="M856.6124 218.6084 L805.2 106.5189 L393.2221 106.5189"/>
        <path fill="white" d="M859.5308 224.9711 L852.0676 220.693 L853.694 212.2458 L861.1571 216.5239 Z" stroke="none"/>
        <path fill="none" d="M859.5308 224.9711 L852.0676 220.693 L853.694 212.2458 L861.1571 216.5239 Z"/>
      </g>
      <g>
        <g text-rendering="optimizeQuality" stroke-miterlimit="1.45" shape-rendering="geometricPrecision" font-family="sans-serif" transform="matrix(1,0,0,1,26,30)" stroke-linecap="butt">
          <text x="852.1675" xml:space="preserve" y="199.6339" stroke="none">mAudioDevice</text>
        </g>
      </g>
    </g>
    <g id="y.edge.6">
      <g text-rendering="optimizeQuality" stroke-miterlimit="1.45" shape-rendering="geometricPrecision" transform="matrix(1,0,0,1,26,30)" stroke-linecap="butt">
        <path fill="none" d="M847.9774 100.1941 L650 100 L393.2288 100"/>
        <path fill="white" d="M854.9774 100.201 L847.9725 105.1941 L840.9774 100.1872 L847.9823 95.1941 Z" stroke="none"/>
        <path fill="none" d="M854.9774 100.201 L847.9725 105.1941 L840.9774 100.1872 L847.9823 95.1941 Z"/>
      </g>
      <g>
        <g text-rendering="optimizeQuality" stroke-miterlimit="1.45" shape-rendering="geometricPrecision" font-family="sans-serif" transform="matrix(1,0,0,1,26,30)" stroke-linecap="butt">
          <text x="761.3867" xml:space="preserve" y="84.3059" stroke="none">mVideoDevice</text>
        </g>
      </g>
    </g>
    <g id="y.edge.7">
      <g text-rendering="optimizeQuality" stroke-miterlimit="1.45" shape-rendering="geometricPrecision" transform="matrix(1,0,0,1,26,30)" stroke-linecap="butt">
        <path fill="none" d="M500 203.6351 L500 118.75 L393.2261 118.75"/>
        <path fill="white" d="M500 210.6351 L495 203.6351 L500 196.6351 L505 203.6351 Z" stroke="none"/>
        <path fill="none" d="M500 210.6351 L495 203.6351 L500 196.6351 L505 203.6351 Z"/>
      </g>
      <g>
        <g text-rendering="optimizeQuality" stroke-miterlimit="1.45" shape-rendering="geometricPrecision" font-family="sans-serif" transform="matrix(1,0,0,1,26,30)" stroke-linecap="butt">
          <text x="497.8555" xml:space="preserve" y="161.8771" stroke="none">mManager</text>
        </g>
      </g>
    </g>
    <g id="y.edge.8">
      <g text-rendering="optimizeQuality" stroke-miterlimit="1.45" shape-rendering="geometricPrecision" transform="matrix(1,0,0,1,26,30)" stroke-linecap="butt">
        <path fill="none" d="M750 21.0374 L750 90.625 L393.2436 90.625"/>
        <path fill="white" d="M750 14.0374 L755 21.0374 L750 28.0374 L745 21.0374 Z" stroke="none"/>
        <path fill="none" d="M750 14.0374 L755 21.0374 L750 28.0374 L745 21.0374 Z"/>
      </g>
      <g>
        <g text-rendering="optimizeQuality" stroke-miterlimit="1.45" shape-rendering="geometricPrecision" font-family="sans-serif" transform="matrix(1,0,0,1,26,30)" stroke-linecap="butt">
          <text x="662.9219" xml:space="preserve" y="64.7793" stroke="none">mConstraints</text>
        </g>
      </g>
    </g>
  </g>
</svg>
