<?xml version="1.0" encoding="UTF-8" standalone="no"?>
<!DOCTYPE svg PUBLIC "-//W3C//DTD SVG 1.0//EN" "http://www.w3.org/TR/2001/PR-SVG-20010719/DTD/svg10.dtd">
<svg width="86cm" height="32cm" viewBox="45 1011 1720 636" xmlns="http://www.w3.org/2000/svg" xmlns:xlink="http://www.w3.org/1999/xlink">
  <g>
    <rect style="fill: #ffffff" x="46.5" y="1144.41" width="222.5" height="28"/>
    <rect style="fill: none; fill-opacity:0; stroke-width: 2; stroke: #000000" x="46.5" y="1144.41" width="222.5" height="28"/>
    <text font-size="16" style="fill: #000000;text-anchor:middle;font-family:sans-serif;font-style:normal;font-weight:700" x="157.75" y="1163.41">GetUserMediaRunnable</text>
    <rect style="fill: #ffffff" x="46.5" y="1172.41" width="222.5" height="8"/>
    <rect style="fill: none; fill-opacity:0; stroke-width: 2; stroke: #000000" x="46.5" y="1172.41" width="222.5" height="8"/>
    <rect style="fill: #ffffff" x="46.5" y="1180.41" width="222.5" height="8"/>
    <rect style="fill: none; fill-opacity:0; stroke-width: 2; stroke: #000000" x="46.5" y="1180.41" width="222.5" height="8"/>
  </g>
  <g>
    <line style="fill: none; fill-opacity:0; stroke-width: 1; stroke-dasharray: 8; stroke: #000000" x1="157.75" y1="1188.41" x2="157.75" y2="1313.88"/>
    <line style="fill: none; fill-opacity:0; stroke-width: 1; stroke-dasharray: 8; stroke: #000000" x1="157.75" y1="1353.88" x2="157.75" y2="1425.72"/>
    <rect style="fill: #ffffff" x="150.75" y="1313.88" width="14" height="40"/>
    <rect style="fill: none; fill-opacity:0; stroke-width: 2; stroke: #000000" x="150.75" y="1313.88" width="14" height="40"/>
    <line style="fill: none; fill-opacity:0; stroke-width: 2.4; stroke: #000000" x1="173.75" y1="1441.72" x2="141.75" y2="1409.72"/>
    <line style="fill: none; fill-opacity:0; stroke-width: 2.4; stroke: #000000" x1="173.75" y1="1409.72" x2="141.75" y2="1441.72"/>
  </g>
  <g>
    <rect style="fill: #ffffff" x="303.376" y="1145.14" width="287.85" height="28"/>
    <rect style="fill: none; fill-opacity:0; stroke-width: 2; stroke: #000000" x="303.376" y="1145.14" width="287.85" height="28"/>
    <text font-size="16" style="fill: #000000;text-anchor:middle;font-family:sans-serif;font-style:normal;font-weight:700" x="447.301" y="1164.14">GetUserMediaStreamRunnable</text>
    <rect style="fill: #ffffff" x="303.376" y="1173.14" width="287.85" height="8"/>
    <rect style="fill: none; fill-opacity:0; stroke-width: 2; stroke: #000000" x="303.376" y="1173.14" width="287.85" height="8"/>
    <rect style="fill: #ffffff" x="303.376" y="1181.14" width="287.85" height="8"/>
    <rect style="fill: none; fill-opacity:0; stroke-width: 2; stroke: #000000" x="303.376" y="1181.14" width="287.85" height="8"/>
  </g>
  <g>
    <line style="fill: none; fill-opacity:0; stroke-width: 1; stroke-dasharray: 8; stroke: #000000" x1="447.302" y1="1189.14" x2="447.302" y2="1353.93"/>
    <line style="fill: none; fill-opacity:0; stroke-width: 1; stroke-dasharray: 8; stroke: #000000" x1="447.302" y1="1393.93" x2="447.302" y2="1433.49"/>
    <rect style="fill: #ffffff" x="440.302" y="1353.93" width="14" height="40"/>
    <rect style="fill: none; fill-opacity:0; stroke-width: 2; stroke: #000000" x="440.302" y="1353.93" width="14" height="40"/>
    <line style="fill: none; fill-opacity:0; stroke-width: 2.4; stroke: #000000" x1="463.302" y1="1449.49" x2="431.302" y2="1417.49"/>
    <line style="fill: none; fill-opacity:0; stroke-width: 2.4; stroke: #000000" x1="463.302" y1="1417.49" x2="431.302" y2="1449.49"/>
  </g>
  <g>
    <line style="fill: none; fill-opacity:0; stroke-width: 2; stroke: #000000" x1="440.302" y1="1353.93" x2="164.75" y2="1353.88"/>
    <polyline style="fill: none; fill-opacity:0; stroke-width: 2; stroke: #000000" points="424.301,1358.93 440.302,1353.93 440.302,1353.93 "/>
    <text font-size="12.7998" style="fill: #000000;text-anchor:middle;font-family:sans-serif;font-style:normal;font-weight:normal" x="302.526" y="1363.91">Dispatch</text>
  </g>
  <g>
    <rect style="fill: #ffffff" x="1397.52" y="1159.99" width="234.8" height="28"/>
    <rect style="fill: none; fill-opacity:0; stroke-width: 2; stroke: #000000" x="1397.52" y="1159.99" width="234.8" height="28"/>
    <text font-size="16" style="fill: #000000;text-anchor:middle;font-family:sans-serif;font-style:normal;font-weight:700" x="1514.92" y="1178.99">nsDOMUserMediaStream</text>
    <rect style="fill: #ffffff" x="1397.52" y="1187.99" width="234.8" height="8"/>
    <rect style="fill: none; fill-opacity:0; stroke-width: 2; stroke: #000000" x="1397.52" y="1187.99" width="234.8" height="8"/>
    <rect style="fill: #ffffff" x="1397.52" y="1195.99" width="234.8" height="8"/>
    <rect style="fill: none; fill-opacity:0; stroke-width: 2; stroke: #000000" x="1397.52" y="1195.99" width="234.8" height="8"/>
  </g>
  <g>
    <rect style="fill: #ffffff" x="801.858" y="1143.45" width="519.1" height="28"/>
    <rect style="fill: none; fill-opacity:0; stroke-width: 2; stroke: #000000" x="801.858" y="1143.45" width="519.1" height="28"/>
    <text font-size="16" style="fill: #000000;text-anchor:middle;font-family:sans-serif;font-style:normal;font-weight:700" x="1061.41" y="1162.45">GetUserMediaStreamRunnable::TracksAvailableCallback</text>
    <rect style="fill: #ffffff" x="801.858" y="1171.45" width="519.1" height="20"/>
    <rect style="fill: none; fill-opacity:0; stroke-width: 2; stroke: #000000" x="801.858" y="1171.45" width="519.1" height="20"/>
    <text font-size="12.8" style="fill: #000000;text-anchor:start;font-family:monospace;font-style:normal;font-weight:normal" x="804.858" y="1185.45">+mStream: DOMMediaStream</text>
    <rect style="fill: #ffffff" x="801.858" y="1191.45" width="519.1" height="8"/>
    <rect style="fill: none; fill-opacity:0; stroke-width: 2; stroke: #000000" x="801.858" y="1191.45" width="519.1" height="8"/>
  </g>
  <g>
    <line style="fill: none; fill-opacity:0; stroke-width: 1; stroke-dasharray: 8; stroke: #000000" x1="1255.27" y1="1410.15" x2="1255.27" y2="1523.91"/>
    <line style="fill: none; fill-opacity:0; stroke-width: 1; stroke-dasharray: 8; stroke: #000000" x1="1255.27" y1="1563.91" x2="1255.27" y2="1630.42"/>
    <rect style="fill: #ffffff" x="1248.27" y="1523.91" width="14" height="40"/>
    <rect style="fill: none; fill-opacity:0; stroke-width: 2; stroke: #000000" x="1248.27" y="1523.91" width="14" height="40"/>
    <line style="fill: none; fill-opacity:0; stroke-width: 2.4; stroke: #000000" x1="1271.27" y1="1646.42" x2="1239.27" y2="1614.42"/>
    <line style="fill: none; fill-opacity:0; stroke-width: 2.4; stroke: #000000" x1="1271.27" y1="1614.42" x2="1239.27" y2="1646.42"/>
  </g>
  <g>
    <line style="fill: none; fill-opacity:0; stroke-width: 2; stroke: #000000" x1="953.715" y1="1205.6" x2="454.302" y2="1363.93"/>
    <polygon style="fill: #000000" points="955.226,1210.36 968.966,1200.76 952.204,1200.83 "/>
    <polygon style="fill: none; fill-opacity:0; stroke-width: 2; stroke: #000000" points="955.226,1210.36 968.966,1200.76 952.204,1200.83 "/>
    <text font-size="12.7998" style="fill: #000000;text-anchor:middle;font-family:sans-serif;font-style:normal;font-weight:normal" x="712.11" y="1292.2">&lt;&lt;create&gt;&gt;</text>
  </g>
  <g>
    <polyline style="fill: none; fill-opacity:0; stroke-width: 2; stroke: #000000" points="1371.34,1181.99 1351.73,1181.99 1351.73,1181.45 1320.96,1181.45 "/>
    <polygon style="fill: #ffffff" points="1396.51,1181.99 1382.51,1186.79 1368.51,1181.99 1382.51,1177.19 "/>
    <polygon style="fill: none; fill-opacity:0; stroke-width: 2; stroke: #000000" points="1396.51,1181.99 1382.51,1186.79 1368.51,1181.99 1382.51,1177.19 "/>
    <text font-size="12.7998" style="fill: #000000;text-anchor:start;font-family:monospace;font-style:normal;font-weight:normal" x="1353.73" y="1181.72"></text>
    <text font-size="12.7998" style="fill: #000000;text-anchor:end;font-family:monospace;font-style:normal;font-weight:normal" x="1364.51" y="1178.99"></text>
    <text font-size="12.7998" style="fill: #000000;text-anchor:start;font-family:monospace;font-style:normal;font-weight:normal" x="1324.96" y="1178.45"></text>
  </g>
  <g>
    <line style="fill: none; fill-opacity:0; stroke-width: 2; stroke: #000000" x1="398.334" y1="1199.51" x2="164.75" y2="1353.88"/>
    <polygon style="fill: #000000" points="401.091,1203.68 411.682,1190.68 395.577,1195.33 "/>
    <polygon style="fill: none; fill-opacity:0; stroke-width: 2; stroke: #000000" points="401.091,1203.68 411.682,1190.68 395.577,1195.33 "/>
    <text font-size="12.7998" style="fill: #000000;text-anchor:middle;font-family:sans-serif;font-style:normal;font-weight:normal" x="288.634" y="1282.01">&lt;&lt;create&gt;&gt;</text>
  </g>
  <g>
    <rect style="fill: #ffffff" x="771.764" y="1338.95" width="239.75" height="44"/>
    <rect style="fill: none; fill-opacity:0; stroke-width: 2; stroke: #000000" x="771.764" y="1338.95" width="239.75" height="44"/>
    <text font-size="12.8" style="fill: #000000;text-anchor:middle;font-family:monospace;font-style:normal;font-weight:normal" x="891.639" y="1354.95">&lt;&lt;MEDIA_START&gt;&gt;</text>
    <text font-size="16" style="fill: #000000;text-anchor:middle;font-family:sans-serif;font-style:normal;font-weight:700" x="891.639" y="1373.95">MediaOperationRunnable</text>
    <rect style="fill: #ffffff" x="771.764" y="1382.95" width="239.75" height="20"/>
    <rect style="fill: none; fill-opacity:0; stroke-width: 2; stroke: #000000" x="771.764" y="1382.95" width="239.75" height="20"/>
    <text font-size="12.8" style="fill: #000000;text-anchor:start;font-family:monospace;font-style:normal;font-weight:normal" x="774.764" y="1396.95">+mOnTracksAvailableCallback</text>
    <rect style="fill: #ffffff" x="771.764" y="1402.95" width="239.75" height="8"/>
    <rect style="fill: none; fill-opacity:0; stroke-width: 2; stroke: #000000" x="771.764" y="1402.95" width="239.75" height="8"/>
  </g>
  <g>
    <line style="fill: none; fill-opacity:0; stroke-width: 2; stroke: #000000" x1="753.76" y1="1374.63" x2="454.302" y2="1373.93"/>
    <polygon style="fill: #000000" points="753.748,1379.63 769.76,1374.66 753.772,1369.63 "/>
    <polygon style="fill: none; fill-opacity:0; stroke-width: 2; stroke: #000000" points="753.748,1379.63 769.76,1374.66 753.772,1369.63 "/>
    <text font-size="12.7998" style="fill: #000000;text-anchor:middle;font-family:sans-serif;font-style:normal;font-weight:normal" x="612.53" y="1384.3">&lt;&lt;create&gt;&gt;</text>
  </g>
  <g>
    <line style="fill: none; fill-opacity:0; stroke-width: 1; stroke-dasharray: 8; stroke: #000000" x1="891.64" y1="1410.95" x2="891.64" y2="1494.77"/>
    <line style="fill: none; fill-opacity:0; stroke-width: 1; stroke-dasharray: 8; stroke: #000000" x1="891.64" y1="1534.77" x2="891.64" y2="1628.44"/>
    <rect style="fill: #ffffff" x="884.64" y="1494.77" width="14" height="40"/>
    <rect style="fill: none; fill-opacity:0; stroke-width: 2; stroke: #000000" x="884.64" y="1494.77" width="14" height="40"/>
    <line style="fill: none; fill-opacity:0; stroke-width: 2.4; stroke: #000000" x1="907.64" y1="1644.44" x2="875.64" y2="1612.44"/>
    <line style="fill: none; fill-opacity:0; stroke-width: 2.4; stroke: #000000" x1="907.64" y1="1612.44" x2="875.64" y2="1644.44"/>
  </g>
  <g>
    <line style="fill: none; fill-opacity:0; stroke-width: 2; stroke: #000000" x1="884.64" y1="1494.77" x2="454.302" y2="1383.93"/>
    <polyline style="fill: none; fill-opacity:0; stroke-width: 2; stroke: #000000" points="867.899,1495.62 884.64,1494.77 884.64,1494.77 "/>
    <text font-size="12.7998" style="fill: #000000;text-anchor:middle;font-family:sans-serif;font-style:normal;font-weight:normal" x="669.47" y="1449.35">Dispatch</text>
  </g>
  <g>
    <polyline style="fill: none; fill-opacity:0; stroke-width: 2; stroke: #000000" points="1061.41,1225.63 1061.41,1392.95 1011.51,1392.95 "/>
    <polygon style="fill: #ffffff" points="1061.41,1200.46 1066.21,1214.46 1061.41,1228.46 1056.61,1214.46 "/>
    <polygon style="fill: none; fill-opacity:0; stroke-width: 2; stroke: #000000" points="1061.41,1200.46 1066.21,1214.46 1061.41,1228.46 1056.61,1214.46 "/>
    <text font-size="12.7998" style="fill: #000000;text-anchor:middle;font-family:monospace;font-style:normal;font-weight:normal" x="1036.46" y="1392.95"></text>
    <text font-size="12.7998" style="fill: #000000;text-anchor:start;font-family:monospace;font-style:normal;font-weight:normal" x="1072.41" y="1212.46"></text>
    <text font-size="12.7998" style="fill: #000000;text-anchor:start;font-family:monospace;font-style:normal;font-weight:normal" x="1015.51" y="1389.95"></text>
  </g>
  <g>
    <rect style="fill: #ffffff" x="1108" y="1338.15" width="294.55" height="44"/>
    <rect style="fill: none; fill-opacity:0; stroke-width: 2; stroke: #000000" x="1108" y="1338.15" width="294.55" height="44"/>
    <text font-size="12.8" style="fill: #000000;text-anchor:middle;font-family:monospace;font-style:normal;font-weight:normal" x="1255.27" y="1354.15">&lt;&lt;STARTING&gt;&gt;</text>
    <text font-size="16" style="fill: #000000;text-anchor:middle;font-family:sans-serif;font-style:normal;font-weight:700" x="1255.27" y="1373.15">GetUserMediaNotificationEvent</text>
    <rect style="fill: #ffffff" x="1108" y="1382.15" width="294.55" height="20"/>
    <rect style="fill: none; fill-opacity:0; stroke-width: 2; stroke: #000000" x="1108" y="1382.15" width="294.55" height="20"/>
    <text font-size="12.8" style="fill: #000000;text-anchor:start;font-family:monospace;font-style:normal;font-weight:normal" x="1111" y="1396.15">+mOnTracksAvailableCallback</text>
    <rect style="fill: #ffffff" x="1108" y="1402.15" width="294.55" height="8"/>
    <rect style="fill: none; fill-opacity:0; stroke-width: 2; stroke: #000000" x="1108" y="1402.15" width="294.55" height="8"/>
  </g>
  <g>
    <polyline style="fill: none; fill-opacity:0; stroke-width: 2; stroke: #000000" points="1061.41,1224.63 1061.41,1392.15 1108,1392.15 "/>
    <polygon style="fill: #ffffff" points="1061.41,1199.45 1066.21,1213.45 1061.41,1227.45 1056.61,1213.45 "/>
    <polygon style="fill: none; fill-opacity:0; stroke-width: 2; stroke: #000000" points="1061.41,1199.45 1066.21,1213.45 1061.41,1227.45 1056.61,1213.45 "/>
    <text font-size="12.7998" style="fill: #000000;text-anchor:middle;font-family:monospace;font-style:normal;font-weight:normal" x="1084.7" y="1392.15"></text>
    <text font-size="12.7998" style="fill: #000000;text-anchor:start;font-family:monospace;font-style:normal;font-weight:normal" x="1072.41" y="1211.45"></text>
    <text font-size="12.7998" style="fill: #000000;text-anchor:end;font-family:monospace;font-style:normal;font-weight:normal" x="1104" y="1389.15"></text>
  </g>
  <g>
    <line style="fill: none; fill-opacity:0; stroke-width: 2; stroke: #000000" x1="1145.68" y1="1417.36" x2="898.64" y2="1514.77"/>
    <polygon style="fill: #000000" points="1147.52,1422.01 1160.57,1411.49 1143.85,1412.71 "/>
    <polygon style="fill: none; fill-opacity:0; stroke-width: 2; stroke: #000000" points="1147.52,1422.01 1160.57,1411.49 1143.85,1412.71 "/>
    <text font-size="12.7998" style="fill: #000000;text-anchor:middle;font-family:sans-serif;font-style:normal;font-weight:normal" x="1030.07" y="1472.95">&lt;&lt;create&gt;&gt;</text>
  </g>
  <g>
    <line style="fill: none; fill-opacity:0; stroke-width: 2; stroke: #000000" x1="1248.27" y1="1523.91" x2="898.64" y2="1524.77"/>
    <polyline style="fill: none; fill-opacity:0; stroke-width: 2; stroke: #000000" points="1232.28,1528.95 1248.27,1523.91 1248.27,1523.91 "/>
    <text font-size="12.7998" style="fill: #000000;text-anchor:middle;font-family:sans-serif;font-style:normal;font-weight:normal" x="1073.46" y="1534.34">Dispatch</text>
  </g>
  <g>
    <line style="fill: none; fill-opacity:0; stroke-width: 1; stroke-dasharray: 8; stroke: #000000" x1="1514.92" y1="1203.99" x2="1514.92" y2="1532.73"/>
    <line style="fill: none; fill-opacity:0; stroke-width: 1; stroke-dasharray: 8; stroke: #000000" x1="1514.92" y1="1572.73" x2="1514.92" y2="1645.41"/>
    <rect style="fill: #ffffff" x="1507.92" y="1532.73" width="14" height="40"/>
    <rect style="fill: none; fill-opacity:0; stroke-width: 2; stroke: #000000" x="1507.92" y="1532.73" width="14" height="40"/>
  </g>
  <g>
    <line style="fill: none; fill-opacity:0; stroke-width: 2; stroke: #000000" x1="1490.92" y1="1532.82" x2="1262.27" y2="1533.91"/>
    <polygon style="fill: #000000" points="1490.94,1537.82 1506.92,1532.74 1490.89,1527.82 "/>
    <polygon style="fill: none; fill-opacity:0; stroke-width: 2; stroke: #000000" points="1490.94,1537.82 1506.92,1532.74 1490.89,1527.82 "/>
    <text font-size="12.7998" style="fill: #000000;text-anchor:middle;font-family:sans-serif;font-style:normal;font-weight:normal" x="1385.09" y="1543.32">OnTracksAvailable()</text>
  </g>
  <g>
    <polyline style="fill: none; fill-opacity:0; stroke-width: 2; stroke: #ff0000" points="1521.92,1572.73 1580.27,1572.73 1580.27,1498.78 1627.62,1498.78 "/>
    <polygon style="fill: #ff0000" points="1627.62,1503.78 1637.62,1498.78 1627.62,1493.78 "/>
    <polygon style="fill: none; fill-opacity:0; stroke-width: 2; stroke: #ff0000" points="1627.62,1503.78 1637.62,1498.78 1627.62,1493.78 "/>
  </g>
  <g>
    <polyline style="fill: none; fill-opacity:0; stroke-width: 2; stroke: #000000" points="1515.27,1095.64 1515.27,1121.73 1514.92,1121.73 1514.92,1158.98 "/>
    <polygon style="fill: #ffffff" points="1515.27,1070.47 1520.07,1084.47 1515.27,1098.47 1510.47,1084.47 "/>
    <polygon style="fill: none; fill-opacity:0; stroke-width: 2; stroke: #000000" points="1515.27,1070.47 1520.07,1084.47 1515.27,1098.47 1510.47,1084.47 "/>
    <text font-size="12.7998" style="fill: #000000;text-anchor:middle;font-family:monospace;font-style:normal;font-weight:normal" x="1515.09" y="1121.73"></text>
    <text font-size="12.7998" style="fill: #000000;text-anchor:start;font-family:monospace;font-style:normal;font-weight:normal" x="1526.27" y="1082.47"></text>
    <text font-size="12.7998" style="fill: #000000;text-anchor:start;font-family:monospace;font-style:normal;font-weight:normal" x="1518.92" y="1154.98"></text>
  </g>
  <g>
    <rect style="fill: #00ff00" x="1639.63" y="1480.78" width="124.4" height="36"/>
    <rect style="fill: none; fill-opacity:0; stroke-width: 2; stroke: #000000" x="1639.63" y="1480.78" width="124.4" height="36"/>
    <text font-size="12.7998" style="fill: #000000;text-anchor:middle;font-family:sans-serif;font-style:normal;font-weight:normal" x="1701.83" y="1502.68">
      <tspan x="1701.83" y="1502.68">successCallback</tspan>
    </text>
    <line style="fill: none; fill-opacity:0; stroke-width: 1; stroke: #000000" x1="1649.63" y1="1505.68" x2="1754.03" y2="1505.68"/>
  </g>
  <g>
    <polyline style="fill: none; fill-opacity:0; stroke-width: 2; stroke: #000000" points="1061.41,1118.28 1061.41,1108.45 1701.83,1108.45 1701.83,1480.78 "/>
    <polygon style="fill: #ffffff" points="1061.41,1143.45 1056.61,1129.45 1061.41,1115.45 1066.21,1129.45 "/>
    <polygon style="fill: none; fill-opacity:0; stroke-width: 2; stroke: #000000" points="1061.41,1143.45 1056.61,1129.45 1061.41,1115.45 1066.21,1129.45 "/>
  </g>
  <g>
    <rect style="fill: #ffffff" x="1461.84" y="1012.46" width="106.85" height="57"/>
    <rect style="fill: none; fill-opacity:0; stroke-width: 4; stroke: #000000" x="1461.84" y="1012.46" width="106.85" height="57"/>
    <text font-size="12.7998" style="fill: #000000;text-anchor:middle;font-family:sans-serif;font-style:normal;font-weight:normal" x="1515.27" y="1055.36">
      <tspan x="1515.27" y="1055.36">Camera</tspan>
    </text>
    <text font-size="12.7998" style="fill: #000000;text-anchor:middle;font-family:sans-serif;font-style:normal;font-weight:normal" x="1515.27" y="1038.46">&lt;&lt;Device&gt;&gt;</text>
    <line style="fill: none; fill-opacity:0; stroke-width: 1; stroke: #000000" x1="1490.14" y1="1058.36" x2="1540.39" y2="1058.36"/>
  </g>
</svg>
