<?xml version="1.0" encoding="UTF-8" standalone="no"?>
<!DOCTYPE svg PUBLIC "-//W3C//DTD SVG 1.0//EN" "http://www.w3.org/TR/2001/PR-SVG-20010719/DTD/svg10.dtd">
<svg width="24cm" height="11cm" viewBox="1252 690 468 208" xmlns="http://www.w3.org/2000/svg" xmlns:xlink="http://www.w3.org/1999/xlink">
  <g>
    <rect style="fill: #ffffff" x="1253.18" y="711.84" width="465.643" height="185.591"/>
    <rect style="fill: none; fill-opacity:0; stroke-width: 2; stroke: #000000" x="1253.18" y="711.84" width="465.643" height="185.591"/>
    <rect style="fill: #ffffff" x="1253.18" y="691.84" width="235" height="20"/>
    <rect style="fill: none; fill-opacity:0; stroke-width: 2; stroke: #000000" x="1253.18" y="691.84" width="235" height="20"/>
    <text font-size="12.7998" style="fill: #000000;text-anchor:start;font-family:monospace;font-style:normal;font-weight:normal" x="1255.18" y="706.84">Life-cycle of MediaStreamTrack</text>
  </g>
  <ellipse style="fill: #000000" cx="1297.13" cy="748.239" rx="10" ry="10"/>
  <g>
    <ellipse style="fill: #ffffff" cx="1665.55" cy="748.239" rx="37.8793" ry="18.9396"/>
    <ellipse style="fill: none; fill-opacity:0; stroke-width: 2; stroke-dasharray: 4; stroke: #000000" cx="1665.55" cy="748.239" rx="37.8793" ry="18.9396"/>
    <text font-size="12.7998" style="fill: #000000;text-anchor:middle;font-family:sans-serif;font-style:normal;font-weight:normal" x="1665.55" y="752.139">
      <tspan x="1665.55" y="752.139">new</tspan>
    </text>
  </g>
  <g>
    <ellipse style="fill: #ffffff" cx="1665.3" cy="859.47" rx="36.8612" ry="18.4306"/>
    <ellipse style="fill: none; fill-opacity:0; stroke-width: 2; stroke-dasharray: 4; stroke: #000000" cx="1665.3" cy="859.47" rx="36.8612" ry="18.4306"/>
    <text font-size="12.7998" style="fill: #000000;text-anchor:middle;font-family:sans-serif;font-style:normal;font-weight:normal" x="1665.3" y="863.37">
      <tspan x="1665.3" y="863.37">live</tspan>
    </text>
  </g>
  <g>
    <ellipse style="fill: #ffffff" cx="1302.83" cy="859.47" rx="41.9712" ry="20.9856"/>
    <ellipse style="fill: none; fill-opacity:0; stroke-width: 2; stroke-dasharray: 4; stroke: #000000" cx="1302.83" cy="859.47" rx="41.9712" ry="20.9856"/>
    <text font-size="12.7998" style="fill: #000000;text-anchor:middle;font-family:sans-serif;font-style:normal;font-weight:normal" x="1302.83" y="863.37">
      <tspan x="1302.83" y="863.37">ended</tspan>
    </text>
  </g>
  <g>
    <polyline style="fill: none; fill-opacity:0; stroke-width: 2; stroke: #000000" points="1627.43,859.47 1486.62,859.47 1486.62,859.47 1350.28,859.47 "/>
    <polyline style="fill: none; fill-opacity:0; stroke-width: 2; stroke: #000000" points="1358.04,854.47 1348.04,859.47 1358.04,864.47 "/>
    <text font-size="12.7998" style="fill: #000000;text-anchor:middle;font-family:sans-serif;font-style:normal;font-weight:normal" x="1488.18" y="850.54">MediaStreamTrack ends for any reason</text>
  </g>
  <g>
    <polyline style="fill: none; fill-opacity:0; stroke-width: 2; stroke: #000000" points="1665.55,768.167 1665.55,804.109 1665.3,804.109 1665.3,835.575 "/>
    <polyline style="fill: none; fill-opacity:0; stroke-width: 2; stroke: #000000" points="1660.3,827.811 1665.3,837.811 1670.3,827.811 "/>
    <text font-size="12.7998" style="fill: #000000;text-anchor:middle;font-family:sans-serif;font-style:normal;font-weight:normal" x="1572.69" y="806.92">connected to active source</text>
  </g>
  <g>
    <polyline style="fill: none; fill-opacity:0; stroke-width: 2; stroke: #000000" points="1308.13,748.239 1467.4,748.239 1467.4,748.239 1622.19,748.239 "/>
    <polyline style="fill: none; fill-opacity:0; stroke-width: 2; stroke: #000000" points="1614.43,753.239 1624.43,748.239 1614.43,743.239 "/>
    <text font-size="12.7998" style="fill: #000000;text-anchor:middle;font-family:sans-serif;font-style:normal;font-weight:normal" x="1459.83" y="740.399">created/Fire "started" event</text>
  </g>
</svg>
