<?xml version="1.0" encoding="UTF-8" standalone="no"?>
<!DOCTYPE svg PUBLIC "-//W3C//DTD SVG 1.0//EN" "http://www.w3.org/TR/2001/PR-SVG-20010719/DTD/svg10.dtd">
<svg width="128cm" height="40cm" viewBox="-660 82 2547 795" xmlns="http://www.w3.org/2000/svg" xmlns:xlink="http://www.w3.org/1999/xlink">
  <g>
    <rect style="fill: #ffffff" x="319" y="407" width="402.7" height="28"/>
    <rect style="fill: none; fill-opacity:0; stroke-width: 2; stroke: #000000" x="319" y="407" width="402.7" height="28"/>
    <text font-size="16" style="fill: #000000;text-anchor:middle;font-family:sans-serif;font-style:normal;font-weight:700" x="520.35" y="426">MediaStream</text>
    <rect style="fill: #ffffff" x="319" y="435" width="402.7" height="100"/>
    <rect style="fill: none; fill-opacity:0; stroke-width: 2; stroke: #000000" x="319" y="435" width="402.7" height="100"/>
    <text font-size="12.8" style="fill: #000000;text-anchor:start;font-family:monospace;font-style:normal;font-weight:normal" x="322" y="449">+id: DOMString (readonly)</text>
    <text font-size="12.8" style="fill: #000000;text-anchor:start;font-family:monospace;font-style:normal;font-weight:normal" x="322" y="465">+active: boolean (readonly)</text>
    <text font-size="12.8" style="fill: #000000;text-anchor:start;font-family:monospace;font-style:normal;font-weight:normal" x="322" y="481">+onactive: EventHandler</text>
    <text font-size="12.8" style="fill: #000000;text-anchor:start;font-family:monospace;font-style:normal;font-weight:normal" x="322" y="497">+oninactive: EventHandler</text>
    <text font-size="12.8" style="fill: #000000;text-anchor:start;font-family:monospace;font-style:normal;font-weight:normal" x="322" y="513">+onaddtrack: EventHandler</text>
    <text font-size="12.8" style="fill: #000000;text-anchor:start;font-family:monospace;font-style:normal;font-weight:normal" x="322" y="529">+onremovetrack: EventHandler</text>
    <rect style="fill: #ffffff" x="319" y="535" width="402.7" height="100"/>
    <rect style="fill: none; fill-opacity:0; stroke-width: 2; stroke: #000000" x="319" y="535" width="402.7" height="100"/>
    <text font-size="12.8" style="fill: #000000;text-anchor:start;font-family:monospace;font-style:normal;font-weight:normal" x="322" y="549">+getAudioTracks(): sequence&lt;MediaStreamTrack&gt;</text>
    <text font-size="12.8" style="fill: #000000;text-anchor:start;font-family:monospace;font-style:normal;font-weight:normal" x="322" y="565">+getVideoTracks(): sequence&lt;MediaStreamTrack&gt;</text>
    <text font-size="12.8" style="fill: #000000;text-anchor:start;font-family:monospace;font-style:normal;font-weight:normal" x="322" y="581">+getTrackById(trackId:DOMString): MediaStreamTrack?</text>
    <text font-size="12.8" style="fill: #000000;text-anchor:start;font-family:monospace;font-style:normal;font-weight:normal" x="322" y="597">+addTrack(track:MediaStreamTrack): void</text>
    <text font-size="12.8" style="fill: #000000;text-anchor:start;font-family:monospace;font-style:normal;font-weight:normal" x="322" y="613">+removeTrack(track:MediaStreamTrack): void</text>
    <text font-size="12.8" style="fill: #000000;text-anchor:start;font-family:monospace;font-style:normal;font-weight:normal" x="322" y="629">+clone(): MediaStream</text>
  </g>
  <g>
    <rect style="fill: #ffffff" x="700" y="269" width="120.85" height="28"/>
    <rect style="fill: none; fill-opacity:0; stroke-width: 2; stroke: #000000" x="700" y="269" width="120.85" height="28"/>
    <text font-size="16" style="fill: #000000;text-anchor:middle;font-family:sans-serif;font-style:normal;font-weight:700" x="760.425" y="288">EventTarget</text>
    <rect style="fill: #ffffff" x="700" y="297" width="120.85" height="8"/>
    <rect style="fill: none; fill-opacity:0; stroke-width: 2; stroke: #000000" x="700" y="297" width="120.85" height="8"/>
    <rect style="fill: #ffffff" x="700" y="305" width="120.85" height="8"/>
    <rect style="fill: none; fill-opacity:0; stroke-width: 2; stroke: #000000" x="700" y="305" width="120.85" height="8"/>
  </g>
  <g>
    <polyline style="fill: none; fill-opacity:0; stroke-width: 2; stroke: #000000" points="760.425,332.242 760.425,367.999 520.35,367.999 520.35,405.993 "/>
    <polygon style="fill: #ffffff" points="768.425,332.242 760.425,316.242 752.425,332.242 "/>
    <polygon style="fill: none; fill-opacity:0; stroke-width: 2; stroke: #000000" points="768.425,332.242 760.425,316.242 752.425,332.242 "/>
  </g>
  <g>
    <rect style="fill: #ffffff" x="794" y="408" width="348.8" height="28"/>
    <rect style="fill: none; fill-opacity:0; stroke-width: 2; stroke: #000000" x="794" y="408" width="348.8" height="28"/>
    <text font-size="16" style="fill: #000000;text-anchor:middle;font-family:sans-serif;font-style:normal;font-weight:700" x="968.4" y="427">MediaStreamTrack</text>
    <rect style="fill: #ffffff" x="794" y="436" width="348.8" height="196"/>
    <rect style="fill: none; fill-opacity:0; stroke-width: 2; stroke: #000000" x="794" y="436" width="348.8" height="196"/>
    <text font-size="12.8" style="fill: #000000;text-anchor:start;font-family:monospace;font-style:normal;font-weight:normal" x="797" y="450">+kind: DOMString (readonly)</text>
    <text font-size="12.8" style="fill: #000000;text-anchor:start;font-family:monospace;font-style:normal;font-weight:normal" x="797" y="466">+id: DOMString (readonly)</text>
    <text font-size="12.8" style="fill: #000000;text-anchor:start;font-family:monospace;font-style:normal;font-weight:normal" x="797" y="482">+label: DOMString (readonly)</text>
    <text font-size="12.8" style="fill: #000000;text-anchor:start;font-family:monospace;font-style:normal;font-weight:normal" x="797" y="498">+enabled: boolean</text>
    <text font-size="12.8" style="fill: #000000;text-anchor:start;font-family:monospace;font-style:normal;font-weight:normal" x="797" y="514">+muted: boolean (readonly)</text>
    <text font-size="12.8" style="fill: #000000;text-anchor:start;font-family:monospace;font-style:normal;font-weight:normal" x="797" y="530">+onmute: EventHandler</text>
    <text font-size="12.8" style="fill: #000000;text-anchor:start;font-family:monospace;font-style:normal;font-weight:normal" x="797" y="546">+onunmute: EventHandler</text>
    <text font-size="12.8" style="fill: #000000;text-anchor:start;font-family:monospace;font-style:normal;font-weight:normal" x="797" y="562">+_readonly: boolean (readonly)</text>
    <text font-size="12.8" style="fill: #000000;text-anchor:start;font-family:monospace;font-style:normal;font-weight:normal" x="797" y="578">+remote: boolean (readonly)</text>
    <text font-size="12.8" style="fill: #000000;text-anchor:start;font-family:monospace;font-style:normal;font-weight:normal" x="797" y="594">+readyState: MediaStramTrackState (readonly)</text>
    <text font-size="12.8" style="fill: #000000;text-anchor:start;font-family:monospace;font-style:normal;font-weight:normal" x="797" y="610">+onstarted: EventHandler</text>
    <text font-size="12.8" style="fill: #000000;text-anchor:start;font-family:monospace;font-style:normal;font-weight:normal" x="797" y="626">+onended: EventHandler</text>
    <rect style="fill: #ffffff" x="794" y="632" width="348.8" height="36"/>
    <rect style="fill: none; fill-opacity:0; stroke-width: 2; stroke: #000000" x="794" y="632" width="348.8" height="36"/>
    <text font-size="12.8" style="fill: #000000;text-anchor:start;font-family:monospace;font-style:normal;font-weight:normal" x="797" y="646">+clone(): MediaStreamTrack</text>
    <text font-size="12.8" style="fill: #000000;text-anchor:start;font-family:monospace;font-style:normal;font-weight:normal" x="797" y="662">+stop(): void</text>
  </g>
  <g>
    <polyline style="fill: none; fill-opacity:0; stroke-width: 2; stroke: #000000" points="760.425,332.242 760.425,368.499 968.4,368.499 968.4,406.992 "/>
    <polygon style="fill: #ffffff" points="768.425,332.242 760.425,316.242 752.425,332.242 "/>
    <polygon style="fill: none; fill-opacity:0; stroke-width: 2; stroke: #000000" points="768.425,332.242 760.425,316.242 752.425,332.242 "/>
  </g>
  <g>
    <rect style="fill: #ffffff" x="529.728" y="737.049" width="140.45" height="57"/>
    <rect style="fill: none; fill-opacity:0; stroke-width: 2; stroke: #000000" x="529.728" y="737.049" width="140.45" height="57"/>
    <rect style="fill: #ffffff" x="521.728" y="745.049" width="140.45" height="57"/>
    <rect style="fill: none; fill-opacity:0; stroke-width: 2; stroke: #000000" x="521.728" y="745.049" width="140.45" height="57"/>
    <text font-size="12.8" style="fill: #000000;text-anchor:middle;font-family:sans-serif;font-style:normal;font-weight:normal" x="591.953" y="787.949">
      <tspan x="591.953" y="787.949">MediaStreamTrack</tspan>
    </text>
    <text font-size="12.8" style="fill: #000000;text-anchor:middle;font-family:sans-serif;font-style:normal;font-weight:normal" x="591.953" y="771.049">&lt;&lt;sequence&gt;&gt;</text>
    <line style="fill: none; fill-opacity:0; stroke-width: 1; stroke: #000000" x1="535.728" y1="790.949" x2="656.178" y2="790.949"/>
  </g>
  <g>
    <rect style="fill: #ffffff" x="292.539" y="738.249" width="140.45" height="57"/>
    <rect style="fill: none; fill-opacity:0; stroke-width: 2; stroke: #000000" x="292.539" y="738.249" width="140.45" height="57"/>
    <rect style="fill: #ffffff" x="284.539" y="746.249" width="140.45" height="57"/>
    <rect style="fill: none; fill-opacity:0; stroke-width: 2; stroke: #000000" x="284.539" y="746.249" width="140.45" height="57"/>
    <text font-size="12.8" style="fill: #000000;text-anchor:middle;font-family:sans-serif;font-style:normal;font-weight:normal" x="354.764" y="789.149">
      <tspan x="354.764" y="789.149">MediaStreamTrack</tspan>
    </text>
    <text font-size="12.8" style="fill: #000000;text-anchor:middle;font-family:sans-serif;font-style:normal;font-weight:normal" x="354.764" y="772.249">&lt;&lt;sequence&gt;&gt;</text>
    <line style="fill: none; fill-opacity:0; stroke-width: 1; stroke: #000000" x1="298.539" y1="792.149" x2="418.989" y2="792.149"/>
  </g>
  <g>
    <polyline style="fill: none; fill-opacity:0; stroke-width: 2; stroke: #000000" points="595.953,711.877 595.953,702.049 742.7,702.049 742.7,545 721.7,545 "/>
    <polygon style="fill: #ffffff" points="595.953,737.049 591.153,723.049 595.953,709.049 600.753,723.049 "/>
    <polygon style="fill: none; fill-opacity:0; stroke-width: 2; stroke: #000000" points="595.953,737.049 591.153,723.049 595.953,709.049 600.753,723.049 "/>
    <text font-size="12.7998" style="fill: #000000;text-anchor:middle;font-family:monospace;font-style:normal;font-weight:normal" x="669.326" y="699.049"></text>
    <text font-size="12.7998" style="fill: #000000;text-anchor:start;font-family:monospace;font-style:normal;font-weight:normal" x="606.953" y="733.049"></text>
    <text font-size="12.7998" style="fill: #000000;text-anchor:start;font-family:monospace;font-style:normal;font-weight:normal" x="725.7" y="542"></text>
  </g>
  <g>
    <polyline style="fill: none; fill-opacity:0; stroke-width: 2; stroke: #000000" points="358.764,713.078 358.764,687.563 733.825,687.563 733.825,561 721.7,561 "/>
    <polygon style="fill: #ffffff" points="358.764,738.249 353.964,724.249 358.764,710.249 363.564,724.249 "/>
    <polygon style="fill: none; fill-opacity:0; stroke-width: 2; stroke: #000000" points="358.764,738.249 353.964,724.249 358.764,710.249 363.564,724.249 "/>
    <text font-size="12.7998" style="fill: #000000;text-anchor:middle;font-family:monospace;font-style:normal;font-weight:normal" x="546.295" y="684.563"></text>
    <text font-size="12.7998" style="fill: #000000;text-anchor:start;font-family:monospace;font-style:normal;font-weight:normal" x="369.764" y="734.249"></text>
    <text font-size="12.7998" style="fill: #000000;text-anchor:start;font-family:monospace;font-style:normal;font-weight:normal" x="725.7" y="558"></text>
  </g>
  <g>
    <polyline style="fill: none; fill-opacity:0; stroke-width: 2; stroke-dasharray: 8; stroke: #000000" points="358.764,804.257 358.764,843.348 1095.83,843.348 1095.83,796.556 "/>
    <polyline style="fill: none; fill-opacity:0; stroke-width: 2; stroke: #000000" points="1100.83,809.203 1095.83,793.203 1090.83,809.203 "/>
  </g>
  <g>
    <line style="fill: none; fill-opacity:0; stroke-width: 2; stroke: #000000" x1="319" y1="477" x2="249.682" y2="425.468"/>
    <polyline style="fill: none; fill-opacity:0; stroke-width: 2; stroke: #000000" points="303.176,471.467 319,477 319,477 "/>
  </g>
  <g>
    <line style="fill: none; fill-opacity:0; stroke-width: 2; stroke: #000000" x1="319" y1="493" x2="140.186" y2="457.854"/>
    <polyline style="fill: none; fill-opacity:0; stroke-width: 2; stroke: #000000" points="302.336,494.82 319,493 319,493 "/>
  </g>
  <g>
    <line style="fill: none; fill-opacity:0; stroke-width: 2; stroke: #000000" x1="319" y1="509" x2="258.522" y2="524.94"/>
    <polyline style="fill: none; fill-opacity:0; stroke-width: 2; stroke: #000000" points="304.803,517.913 319,509 319,509 "/>
  </g>
  <g>
    <line style="fill: none; fill-opacity:0; stroke-width: 2; stroke: #000000" x1="319" y1="525" x2="259.294" y2="595.882"/>
    <polyline style="fill: none; fill-opacity:0; stroke-width: 2; stroke: #000000" points="312.516,540.458 319,525 319,525 "/>
  </g>
  <g>
    <polygon style="fill: #ffffff" points="39.1436,325.256 391.644,325.256 403.644,337.256 403.644,391.256 39.1436,391.256 "/>
    <polygon style="fill: none; fill-opacity:0; stroke-width: 2; stroke: #000000" points="39.1436,325.256 391.644,325.256 403.644,337.256 403.644,391.256 39.1436,391.256 "/>
    <polyline style="fill: none; fill-opacity:0; stroke-width: 1; stroke: #000000" points="391.644,325.256 391.644,337.256 403.644,337.256 "/>
    <text font-size="12.8" style="fill: #000000;text-anchor:start;font-family:monospace;font-style:normal;font-weight:normal" x="46.1436" y="350.156">
      <tspan x="46.1436" y="350.156">inactive)</tspan>
      <tspan x="46.1436" y="366.156">does not have any tracks or</tspan>
      <tspan x="46.1436" y="382.156">all tracks belonging to the stream have ended</tspan>
    </text>
  </g>
  <g>
    <rect style="fill: #ffffff" x="40.6858" y="429.354" width="99.5" height="57"/>
    <rect style="fill: none; fill-opacity:0; stroke-width: 2; stroke: #000000" x="40.6858" y="429.354" width="99.5" height="57"/>
    <text font-size="12.8" style="fill: #000000;text-anchor:middle;font-family:sans-serif;font-style:normal;font-weight:normal" x="90.4358" y="472.254">
      <tspan x="90.4358" y="472.254">inactive</tspan>
    </text>
    <text font-size="12.8" style="fill: #000000;text-anchor:middle;font-family:sans-serif;font-style:normal;font-weight:normal" x="90.4358" y="455.354">&lt;&lt;event&gt;&gt;</text>
    <line style="fill: none; fill-opacity:0; stroke-width: 1; stroke: #000000" x1="65.1358" y1="475.254" x2="115.736" y2="475.254"/>
  </g>
  <g>
    <rect style="fill: #ffffff" x="150.183" y="396.968" width="99.5" height="57"/>
    <rect style="fill: none; fill-opacity:0; stroke-width: 2; stroke: #000000" x="150.183" y="396.968" width="99.5" height="57"/>
    <text font-size="12.8" style="fill: #000000;text-anchor:middle;font-family:sans-serif;font-style:normal;font-weight:normal" x="199.933" y="439.868">
      <tspan x="199.933" y="439.868">active</tspan>
    </text>
    <text font-size="12.8" style="fill: #000000;text-anchor:middle;font-family:sans-serif;font-style:normal;font-weight:normal" x="199.933" y="422.968">&lt;&lt;event&gt;&gt;</text>
    <line style="fill: none; fill-opacity:0; stroke-width: 1; stroke: #000000" x1="180.458" y1="442.868" x2="219.408" y2="442.868"/>
  </g>
  <g>
    <rect style="fill: #ffffff" x="38.3724" y="496.44" width="220.15" height="57"/>
    <rect style="fill: none; fill-opacity:0; stroke-width: 2; stroke: #000000" x="38.3724" y="496.44" width="220.15" height="57"/>
    <text font-size="12.8" style="fill: #000000;text-anchor:middle;font-family:sans-serif;font-style:normal;font-weight:normal" x="148.447" y="539.34">
      <tspan x="148.447" y="539.34">addtrack</tspan>
    </text>
    <text font-size="12.8" style="fill: #000000;text-anchor:middle;font-family:sans-serif;font-style:normal;font-weight:normal" x="148.447" y="522.44">&lt;&lt;MediaStreamTrackEvent&gt;&gt;</text>
    <line style="fill: none; fill-opacity:0; stroke-width: 1; stroke: #000000" x1="120.097" y1="542.34" x2="176.797" y2="542.34"/>
  </g>
  <g>
    <rect style="fill: #ffffff" x="39.1436" y="567.382" width="220.15" height="57"/>
    <rect style="fill: none; fill-opacity:0; stroke-width: 2; stroke: #000000" x="39.1436" y="567.382" width="220.15" height="57"/>
    <text font-size="12.8" style="fill: #000000;text-anchor:middle;font-family:sans-serif;font-style:normal;font-weight:normal" x="149.219" y="610.282">
      <tspan x="149.219" y="610.282">removetrack</tspan>
    </text>
    <text font-size="12.8" style="fill: #000000;text-anchor:middle;font-family:sans-serif;font-style:normal;font-weight:normal" x="149.219" y="593.382">&lt;&lt;MediaStreamTrackEvent&gt;&gt;</text>
    <line style="fill: none; fill-opacity:0; stroke-width: 1; stroke: #000000" x1="108.469" y1="613.282" x2="189.969" y2="613.282"/>
  </g>
  <g>
    <rect style="fill: #ffffff" x="1023.25" y="214.012" width="495.1" height="28"/>
    <rect style="fill: none; fill-opacity:0; stroke-width: 2; stroke: #000000" x="1023.25" y="214.012" width="495.1" height="28"/>
    <text font-size="16" style="fill: #000000;text-anchor:middle;font-family:sans-serif;font-style:normal;font-weight:700" x="1270.8" y="233.012">Constrainable</text>
    <rect style="fill: #ffffff" x="1023.25" y="242.012" width="495.1" height="68"/>
    <rect style="fill: none; fill-opacity:0; stroke-width: 2; stroke: #000000" x="1023.25" y="242.012" width="495.1" height="68"/>
    <text font-size="12.8" style="fill: #000000;text-anchor:start;font-family:monospace;font-style:normal;font-weight:normal" x="1026.25" y="256.012">+capabilities(): Capabilities (readonly)</text>
    <text font-size="12.8" style="fill: #000000;text-anchor:start;font-family:monospace;font-style:normal;font-weight:normal" x="1026.25" y="272.012">+constraints: Constraints (readonly)</text>
    <text font-size="12.8" style="fill: #000000;text-anchor:start;font-family:monospace;font-style:normal;font-weight:normal" x="1026.25" y="288.012">+settings: Settings (readonly)</text>
    <text font-size="12.8" style="fill: #000000;text-anchor:start;font-family:monospace;font-style:normal;font-weight:normal" x="1026.25" y="304.012">+onoverconstrained: EventHandler</text>
    <rect style="fill: #ffffff" x="1023.25" y="310.012" width="495.1" height="52"/>
    <rect style="fill: none; fill-opacity:0; stroke-width: 2; stroke: #000000" x="1023.25" y="310.012" width="495.1" height="52"/>
    <text font-size="12.8" style="fill: #000000;text-anchor:start;font-family:monospace;font-style:normal;font-weight:normal" x="1026.25" y="324.012">+applyConstraints(constraints:Constraints,</text>
    <text font-size="12.8" style="fill: #000000;text-anchor:start;font-family:monospace;font-style:normal;font-weight:normal" x="1026.25" y="340.012">                  successCallback:VoidFunction,</text>
    <text font-size="12.8" style="fill: #000000;text-anchor:start;font-family:monospace;font-style:normal;font-weight:normal" x="1026.25" y="356.012">                  errrorCallback:ConstraintErrorCallback): void</text>
  </g>
  <g>
    <polyline style="fill: none; fill-opacity:0; stroke-width: 2; stroke-dasharray: 8; stroke: #000000" points="1270.8,380.248 1270.8,392.502 968.4,392.502 968.4,406.992 "/>
    <polygon style="fill: #ffffff" points="1278.8,380.248 1270.8,364.248 1262.8,380.248 "/>
    <polygon style="fill: none; fill-opacity:0; stroke-width: 2; stroke: #000000" points="1278.8,380.248 1270.8,364.248 1262.8,380.248 "/>
  </g>
  <g>
    <rect style="fill: #ffffff" x="986.881" y="717.851" width="217.9" height="28"/>
    <rect style="fill: none; fill-opacity:0; stroke-width: 2; stroke: #000000" x="986.881" y="717.851" width="217.9" height="28"/>
    <text font-size="16" style="fill: #000000;text-anchor:middle;font-family:sans-serif;font-style:normal;font-weight:700" x="1095.83" y="736.851">VideoStreamTrack</text>
    <rect style="fill: #ffffff" x="986.881" y="745.851" width="217.9" height="36"/>
    <rect style="fill: none; fill-opacity:0; stroke-width: 2; stroke: #000000" x="986.881" y="745.851" width="217.9" height="36"/>
    <text font-size="12.8" style="fill: #000000;text-anchor:start;font-family:monospace;font-style:normal;font-weight:normal" x="989.881" y="759.851">+sourceType: SourceTypeEnum</text>
    <text font-size="12.8" style="fill: #000000;text-anchor:start;font-family:monospace;font-style:normal;font-weight:normal" x="989.881" y="775.851">+sourceId: DOMString</text>
    <rect style="fill: #ffffff" x="986.881" y="781.851" width="217.9" height="8"/>
    <rect style="fill: none; fill-opacity:0; stroke-width: 2; stroke: #000000" x="986.881" y="781.851" width="217.9" height="8"/>
  </g>
  <g>
    <rect style="fill: #ffffff" x="746.27" y="717.851" width="217.9" height="28"/>
    <rect style="fill: none; fill-opacity:0; stroke-width: 2; stroke: #000000" x="746.27" y="717.851" width="217.9" height="28"/>
    <text font-size="16" style="fill: #000000;text-anchor:middle;font-family:sans-serif;font-style:normal;font-weight:700" x="855.22" y="736.851">AudioStreamTrack</text>
    <rect style="fill: #ffffff" x="746.27" y="745.851" width="217.9" height="36"/>
    <rect style="fill: none; fill-opacity:0; stroke-width: 2; stroke: #000000" x="746.27" y="745.851" width="217.9" height="36"/>
    <text font-size="12.8" style="fill: #000000;text-anchor:start;font-family:monospace;font-style:normal;font-weight:normal" x="749.27" y="759.851">+sourceType: SourceTypeEnum</text>
    <text font-size="12.8" style="fill: #000000;text-anchor:start;font-family:monospace;font-style:normal;font-weight:normal" x="749.27" y="775.851">+sourceId: DOMString</text>
    <rect style="fill: #ffffff" x="746.27" y="781.851" width="217.9" height="8"/>
    <rect style="fill: none; fill-opacity:0; stroke-width: 2; stroke: #000000" x="746.27" y="781.851" width="217.9" height="8"/>
  </g>
  <g>
    <polyline style="fill: none; fill-opacity:0; stroke-width: 2; stroke: #000000" points="968.4,687.244 968.4,700.925 1095.83,700.925 1095.83,716.842 "/>
    <polygon style="fill: #ffffff" points="976.4,687.244 968.4,671.244 960.4,687.244 "/>
    <polygon style="fill: none; fill-opacity:0; stroke-width: 2; stroke: #000000" points="976.4,687.244 968.4,671.244 960.4,687.244 "/>
  </g>
  <g>
    <polyline style="fill: none; fill-opacity:0; stroke-width: 2; stroke: #000000" points="968.4,687.244 968.4,700.925 855.22,700.925 855.22,716.842 "/>
    <polygon style="fill: #ffffff" points="976.4,687.244 968.4,671.244 960.4,687.244 "/>
    <polygon style="fill: none; fill-opacity:0; stroke-width: 2; stroke: #000000" points="976.4,687.244 968.4,671.244 960.4,687.244 "/>
  </g>
  <g>
    <polyline style="fill: none; fill-opacity:0; stroke-width: 2; stroke-dasharray: 8; stroke: #000000" points="595.953,803.057 595.953,824.057 855.22,824.057 855.22,796.556 "/>
    <polyline style="fill: none; fill-opacity:0; stroke-width: 2; stroke: #000000" points="860.22,809.203 855.22,793.203 850.22,809.203 "/>
  </g>
  <g>
    <rect style="fill: #ffffff" x="1253.18" y="690.434" width="465.643" height="185.591"/>
    <rect style="fill: none; fill-opacity:0; stroke-width: 2; stroke: #000000" x="1253.18" y="690.434" width="465.643" height="185.591"/>
    <rect style="fill: #ffffff" x="1253.18" y="654.434" width="235" height="36"/>
    <rect style="fill: none; fill-opacity:0; stroke-width: 2; stroke: #000000" x="1253.18" y="654.434" width="235" height="36"/>
    <text font-size="12.7998" style="fill: #000000;text-anchor:start;font-family:monospace;font-style:normal;font-weight:normal" x="1255.18" y="669.434">&lt;&lt;MediaStreamTrackState&gt;&gt;</text>
    <text font-size="12.7998" style="fill: #000000;text-anchor:start;font-family:monospace;font-style:normal;font-weight:normal" x="1255.18" y="685.434">Life-cycle of MediaStreamTrack</text>
  </g>
  <ellipse style="fill: #000000" cx="1297.13" cy="726.832" rx="10" ry="10"/>
  <g>
    <ellipse style="fill: #ffffff" cx="1665.55" cy="726.834" rx="37.8793" ry="18.9396"/>
    <ellipse style="fill: none; fill-opacity:0; stroke-width: 2; stroke-dasharray: 4; stroke: #000000" cx="1665.55" cy="726.834" rx="37.8793" ry="18.9396"/>
    <text font-size="12.8" style="fill: #000000;text-anchor:middle;font-family:sans-serif;font-style:normal;font-weight:normal" x="1665.55" y="730.734">
      <tspan x="1665.55" y="730.734">new</tspan>
    </text>
  </g>
  <g>
    <ellipse style="fill: #ffffff" cx="1665.3" cy="838.065" rx="36.8612" ry="18.4306"/>
    <ellipse style="fill: none; fill-opacity:0; stroke-width: 2; stroke-dasharray: 4; stroke: #000000" cx="1665.3" cy="838.065" rx="36.8612" ry="18.4306"/>
    <text font-size="12.8" style="fill: #000000;text-anchor:middle;font-family:sans-serif;font-style:normal;font-weight:normal" x="1665.3" y="841.965">
      <tspan x="1665.3" y="841.965">live</tspan>
    </text>
  </g>
  <g>
    <ellipse style="fill: #ffffff" cx="1302.83" cy="838.064" rx="41.9712" ry="20.9856"/>
    <ellipse style="fill: none; fill-opacity:0; stroke-width: 2; stroke-dasharray: 4; stroke: #000000" cx="1302.83" cy="838.064" rx="41.9712" ry="20.9856"/>
    <text font-size="12.8" style="fill: #000000;text-anchor:middle;font-family:sans-serif;font-style:normal;font-weight:normal" x="1302.83" y="841.964">
      <tspan x="1302.83" y="841.964">ended</tspan>
    </text>
  </g>
  <g>
    <polyline style="fill: none; fill-opacity:0; stroke-width: 2; stroke: #000000" points="1627.43,838.065 1486.62,838.065 1486.62,838.064 1350.28,838.064 "/>
    <polyline style="fill: none; fill-opacity:0; stroke-width: 2; stroke: #000000" points="1358.04,833.064 1348.04,838.064 1358.04,843.064 "/>
    <text font-size="12.7998" style="fill: #000000;text-anchor:middle;font-family:sans-serif;font-style:normal;font-weight:normal" x="1488.18" y="829.135">MediaStreamTrack ends for any reason</text>
  </g>
  <g>
    <polyline style="fill: none; fill-opacity:0; stroke-width: 2; stroke: #000000" points="1665.55,746.766 1665.55,804.108 1665.3,804.108 1665.3,814.194 "/>
    <polyline style="fill: none; fill-opacity:0; stroke-width: 2; stroke: #000000" points="1660.3,806.43 1665.3,816.43 1670.3,806.43 "/>
    <text font-size="12.7998" style="fill: #000000;text-anchor:middle;font-family:sans-serif;font-style:normal;font-weight:normal" x="1573.4" y="786.267">connected to active source</text>
  </g>
  <g>
    <polyline style="fill: none; fill-opacity:0; stroke-width: 2; stroke: #000000" points="1308.13,726.832 1467.4,726.832 1467.4,726.834 1622.19,726.834 "/>
    <polyline style="fill: none; fill-opacity:0; stroke-width: 2; stroke: #000000" points="1614.43,731.834 1624.43,726.834 1614.43,721.834 "/>
    <text font-size="12.7998" style="fill: #000000;text-anchor:middle;font-family:sans-serif;font-style:normal;font-weight:normal" x="1459.83" y="718.994">created/Fire "started" event</text>
  </g>
  <g>
    <polyline style="fill: none; fill-opacity:0; stroke-width: 2; stroke: #000000" points="1228.01,690.434 1190.99,690.434 1190.99,590 1142.8,590 "/>
    <polygon style="fill: #ffffff" points="1253.18,690.434 1239.18,695.234 1225.18,690.434 1239.18,685.634 "/>
    <polygon style="fill: none; fill-opacity:0; stroke-width: 2; stroke: #000000" points="1253.18,690.434 1239.18,695.234 1225.18,690.434 1239.18,685.634 "/>
    <text font-size="12.7998" style="fill: #000000;text-anchor:start;font-family:monospace;font-style:normal;font-weight:normal" x="1192.99" y="637.217"></text>
    <text font-size="12.7998" style="fill: #000000;text-anchor:end;font-family:monospace;font-style:normal;font-weight:normal" x="1221.18" y="687.434"></text>
    <text font-size="12.7998" style="fill: #000000;text-anchor:start;font-family:monospace;font-style:normal;font-weight:normal" x="1146.8" y="587"></text>
  </g>
  <g>
    <rect style="fill: #ffffff" x="1252.28" y="561.312" width="633.759" height="83.4128"/>
    <rect style="fill: none; fill-opacity:0; stroke-width: 2; stroke: #000000" x="1252.28" y="561.312" width="633.759" height="83.4128"/>
    <rect style="fill: #ffffff" x="1252.28" y="541.312" width="81" height="20"/>
    <rect style="fill: none; fill-opacity:0; stroke-width: 2; stroke: #000000" x="1252.28" y="541.312" width="81" height="20"/>
    <text font-size="12.7998" style="fill: #000000;text-anchor:start;font-family:monospace;font-style:normal;font-weight:normal" x="1254.28" y="556.312">Media Flow</text>
  </g>
  <g>
    <image x="1264.58" y="581.374" width="40" height="40" xlink:href="webcam.png"/>
    <text font-size="12.8" style="fill: #000000;text-anchor:start;font-family:sans-serif;font-style:normal;font-weight:normal" x="1263.18" y="635.374">
      <tspan x="1263.18" y="635.374">source</tspan>
    </text>
  </g>
  <g>
    <rect style="fill: #ffffff" x="1428.93" y="583.388" width="132.55" height="36"/>
    <rect style="fill: none; fill-opacity:0; stroke-width: 2; stroke: #000000" x="1428.93" y="583.388" width="132.55" height="36"/>
    <text font-size="12.8" style="fill: #000000;text-anchor:middle;font-family:sans-serif;font-style:normal;font-weight:normal" x="1495.2" y="605.288">
      <tspan x="1495.2" y="605.288">MediaStramTrack</tspan>
    </text>
    <line style="fill: none; fill-opacity:0; stroke-width: 1; stroke: #000000" x1="1438.93" y1="608.288" x2="1551.48" y2="608.288"/>
  </g>
  <g>
    <rect style="fill: #ffffff" x="1722.34" y="572.83" width="154.9" height="57"/>
    <rect style="fill: none; fill-opacity:0; stroke-width: 2; stroke: #000000" x="1722.34" y="572.83" width="154.9" height="57"/>
    <text font-size="12.8" style="fill: #000000;text-anchor:middle;font-family:sans-serif;font-style:normal;font-weight:normal" x="1799.79" y="615.73">
      <tspan x="1799.79" y="615.73">Renderer</tspan>
    </text>
    <text font-size="12.8" style="fill: #000000;text-anchor:middle;font-family:sans-serif;font-style:normal;font-weight:normal" x="1799.79" y="598.83">&lt;&lt;video element&gt;&gt;</text>
    <line style="fill: none; fill-opacity:0; stroke-width: 1; stroke: #000000" x1="1770.11" y1="618.73" x2="1829.46" y2="618.73"/>
  </g>
  <g>
    <polyline style="fill: none; fill-opacity:0; stroke-width: 2; stroke: #000000" points="1304.58,601.374 1368.43,601.374 1368.43,601.388 1423.47,601.388 "/>
    <polyline style="fill: none; fill-opacity:0; stroke-width: 2; stroke: #000000" points="1415.71,606.388 1425.71,601.388 1415.71,596.388 "/>
    <text font-size="12.7998" style="fill: #000000;text-anchor:middle;font-family:sans-serif;font-style:normal;font-weight:normal" x="1362.49" y="593.47">muted/unmuted</text>
  </g>
  <g>
    <polyline style="fill: none; fill-opacity:0; stroke-width: 2; stroke: #000000" points="1562.49,601.388 1641.91,601.388 1641.91,601.33 1716.85,601.33 "/>
    <polyline style="fill: none; fill-opacity:0; stroke-width: 2; stroke: #000000" points="1709.09,606.33 1719.09,601.33 1709.09,596.33 "/>
    <text font-size="12.7998" style="fill: #000000;text-anchor:middle;font-family:sans-serif;font-style:normal;font-weight:normal" x="1637.69" y="614.248">[Application control]</text>
    <text font-size="12.7998" style="fill: #000000;text-anchor:middle;font-family:sans-serif;font-style:normal;font-weight:normal" x="1637.69" y="592.85">enabled/disabled</text>
  </g>
  <g>
    <polyline style="fill: none; fill-opacity:0; stroke-width: 2; stroke: #000000" points="1561.48,558.216 1561.48,494 1142.8,494 "/>
    <polygon style="fill: #ffffff" points="1561.48,583.388 1556.68,569.388 1561.48,555.388 1566.28,569.388 "/>
    <polygon style="fill: none; fill-opacity:0; stroke-width: 2; stroke: #000000" points="1561.48,583.388 1556.68,569.388 1561.48,555.388 1566.28,569.388 "/>
    <text font-size="12.7998" style="fill: #000000;text-anchor:middle;font-family:monospace;font-style:normal;font-weight:normal" x="1352.14" y="491"></text>
    <text font-size="12.7998" style="fill: #000000;text-anchor:start;font-family:monospace;font-style:normal;font-weight:normal" x="1572.48" y="579.388"></text>
    <text font-size="12.7998" style="fill: #000000;text-anchor:start;font-family:monospace;font-style:normal;font-weight:normal" x="1146.8" y="491"></text>
  </g>
  <g>
    <polyline style="fill: none; fill-opacity:0; stroke-width: 2; stroke: #000000" points="1428.93,558.216 1428.93,510 1142.8,510 "/>
    <polygon style="fill: #ffffff" points="1428.93,583.388 1424.13,569.388 1428.93,555.388 1433.73,569.388 "/>
    <polygon style="fill: none; fill-opacity:0; stroke-width: 2; stroke: #000000" points="1428.93,583.388 1424.13,569.388 1428.93,555.388 1433.73,569.388 "/>
    <text font-size="12.7998" style="fill: #000000;text-anchor:middle;font-family:monospace;font-style:normal;font-weight:normal" x="1285.86" y="507"></text>
    <text font-size="12.7998" style="fill: #000000;text-anchor:start;font-family:monospace;font-style:normal;font-weight:normal" x="1439.93" y="579.388"></text>
    <text font-size="12.7998" style="fill: #000000;text-anchor:start;font-family:monospace;font-style:normal;font-weight:normal" x="1146.8" y="507"></text>
  </g>
  <g>
    <rect style="fill: #ffffff" x="-658.252" y="103.163" width="854.89" height="210.203"/>
    <rect style="fill: none; fill-opacity:0; stroke-width: 2; stroke: #000000" x="-658.252" y="103.163" width="854.89" height="210.203"/>
    <rect style="fill: #ffffff" x="-658.252" y="83.1631" width="165.7" height="20"/>
    <rect style="fill: none; fill-opacity:0; stroke-width: 2; stroke: #000000" x="-658.252" y="83.1631" width="165.7" height="20"/>
    <text font-size="12.7998" style="fill: #000000;text-anchor:start;font-family:monospace;font-style:normal;font-weight:normal" x="-656.252" y="98.1631">MediaStreamTrackEvent</text>
  </g>
  <g>
    <rect style="fill: #ffffff" x="-151.206" y="202.404" width="333.4" height="28"/>
    <rect style="fill: none; fill-opacity:0; stroke-width: 2; stroke: #000000" x="-151.206" y="202.404" width="333.4" height="28"/>
    <text font-size="16" style="fill: #000000;text-anchor:middle;font-family:sans-serif;font-style:normal;font-weight:700" x="15.4935" y="221.404">MediaStreamTrackEvent</text>
    <rect style="fill: #ffffff" x="-151.206" y="230.404" width="333.4" height="20"/>
    <rect style="fill: none; fill-opacity:0; stroke-width: 2; stroke: #000000" x="-151.206" y="230.404" width="333.4" height="20"/>
    <text font-size="12.8" style="fill: #000000;text-anchor:start;font-family:monospace;font-style:normal;font-weight:normal" x="-148.206" y="244.404">+track: MediaStreamTrack (readonly)</text>
    <rect style="fill: #ffffff" x="-151.206" y="250.404" width="333.4" height="20"/>
    <rect style="fill: none; fill-opacity:0; stroke-width: 2; stroke: #000000" x="-151.206" y="250.404" width="333.4" height="20"/>
    <text font-size="12.8" style="fill: #000000;text-anchor:start;font-family:monospace;font-style:normal;font-weight:normal" x="-148.206" y="264.404">+Constructor(type:DOMString,eventInitDict)</text>
  </g>
  <g>
    <rect style="fill: #ffffff" x="-623.334" y="222.219" width="261.4" height="28"/>
    <rect style="fill: none; fill-opacity:0; stroke-width: 2; stroke: #000000" x="-623.334" y="222.219" width="261.4" height="28"/>
    <text font-size="16" style="fill: #000000;text-anchor:middle;font-family:sans-serif;font-style:normal;font-weight:700" x="-492.634" y="241.219">MediaStreamTrackEventInit</text>
    <rect style="fill: #ffffff" x="-623.334" y="250.219" width="261.4" height="20"/>
    <rect style="fill: none; fill-opacity:0; stroke-width: 2; stroke: #000000" x="-623.334" y="250.219" width="261.4" height="20"/>
    <text font-size="12.8" style="fill: #000000;text-anchor:start;font-family:monospace;font-style:normal;font-weight:normal" x="-620.334" y="264.219">+track: MediaStreamTrack?</text>
    <rect style="fill: #ffffff" x="-623.334" y="270.219" width="261.4" height="8"/>
    <rect style="fill: none; fill-opacity:0; stroke-width: 2; stroke: #000000" x="-623.334" y="270.219" width="261.4" height="8"/>
  </g>
  <g>
    <rect style="fill: #ffffff" x="-15.3319" y="116.407" width="61.3" height="28"/>
    <rect style="fill: none; fill-opacity:0; stroke-width: 2; stroke: #000000" x="-15.3319" y="116.407" width="61.3" height="28"/>
    <text font-size="16" style="fill: #000000;text-anchor:middle;font-family:sans-serif;font-style:normal;font-weight:700" x="15.3181" y="135.407">Event</text>
    <rect style="fill: #ffffff" x="-15.3319" y="144.407" width="61.3" height="8"/>
    <rect style="fill: none; fill-opacity:0; stroke-width: 2; stroke: #000000" x="-15.3319" y="144.407" width="61.3" height="8"/>
    <rect style="fill: #ffffff" x="-15.3319" y="152.407" width="61.3" height="8"/>
    <rect style="fill: none; fill-opacity:0; stroke-width: 2; stroke: #000000" x="-15.3319" y="152.407" width="61.3" height="8"/>
  </g>
  <g>
    <rect style="fill: #ffffff" x="-538.755" y="123.452" width="91.8" height="28"/>
    <rect style="fill: none; fill-opacity:0; stroke-width: 2; stroke: #000000" x="-538.755" y="123.452" width="91.8" height="28"/>
    <text font-size="16" style="fill: #000000;text-anchor:middle;font-family:sans-serif;font-style:normal;font-weight:700" x="-492.855" y="142.452">EventInit</text>
    <rect style="fill: #ffffff" x="-538.755" y="151.452" width="91.8" height="8"/>
    <rect style="fill: none; fill-opacity:0; stroke-width: 2; stroke: #000000" x="-538.755" y="151.452" width="91.8" height="8"/>
    <rect style="fill: #ffffff" x="-538.755" y="159.452" width="91.8" height="8"/>
    <rect style="fill: none; fill-opacity:0; stroke-width: 2; stroke: #000000" x="-538.755" y="159.452" width="91.8" height="8"/>
  </g>
  <g>
    <polyline style="fill: none; fill-opacity:0; stroke-width: 2; stroke: #000000" points="15.3181,179.649 15.3181,189.404 15.4935,189.404 15.4935,201.395 "/>
    <polygon style="fill: #ffffff" points="23.3181,179.649 15.3181,163.649 7.31806,179.649 "/>
    <polygon style="fill: none; fill-opacity:0; stroke-width: 2; stroke: #000000" points="23.3181,179.649 15.3181,163.649 7.31806,179.649 "/>
  </g>
  <g>
    <polyline style="fill: none; fill-opacity:0; stroke-width: 2; stroke: #000000" points="-492.855,186.694 -492.855,202.835 -492.634,202.835 -492.634,221.212 "/>
    <polygon style="fill: #ffffff" points="-484.855,186.694 -492.855,170.694 -500.855,186.694 "/>
    <polygon style="fill: none; fill-opacity:0; stroke-width: 2; stroke: #000000" points="-484.855,186.694 -492.855,170.694 -500.855,186.694 "/>
  </g>
  <g>
    <line style="fill: none; fill-opacity:0; stroke-width: 2; stroke-dasharray: 8; stroke: #000000" x1="-151.206" y1="260.404" x2="-354.395" y2="254.342"/>
    <polyline style="fill: none; fill-opacity:0; stroke-width: 2; stroke: #000000" points="-341.605,249.722 -357.747,254.243 -341.903,259.717 "/>
    <text font-size="12.7998" style="fill: #000000;text-anchor:start;font-family:monospace;font-style:normal;font-weight:normal" x="-304.02" y="246.9">{eventInitDict}</text>
  </g>
  <g>
    <polyline style="fill: none; fill-opacity:0; stroke-width: 2; stroke-dasharray: 8; stroke: #000000" points="15.4935,288.64 15.4935,524.94 38.3724,524.94 "/>
    <polygon style="fill: #ffffff" points="23.4935,288.64 15.4935,272.64 7.49351,288.64 "/>
    <polygon style="fill: none; fill-opacity:0; stroke-width: 2; stroke: #000000" points="23.4935,288.64 15.4935,272.64 7.49351,288.64 "/>
  </g>
  <g>
    <polyline style="fill: none; fill-opacity:0; stroke-width: 2; stroke-dasharray: 8; stroke: #000000" points="15.4935,288.64 15.4935,595.882 39.1436,595.882 "/>
    <polygon style="fill: #ffffff" points="23.4935,288.64 15.4935,272.64 7.49351,288.64 "/>
    <polygon style="fill: none; fill-opacity:0; stroke-width: 2; stroke: #000000" points="23.4935,288.64 15.4935,272.64 7.49351,288.64 "/>
  </g>
</svg>
